<svg version="1.1" id="bug" xmlns="http://www.w3.org/2000/svg" xmlns:xlink="http://www.w3.org/1999/xlink" x="0px" y="0px"
	 viewBox="0 0 384 384" style="enable-background:new 0 0 384 384;" xml:space="preserve">
<circle style="fill:#EFC84A;" cx="192" cy="192" r="192"/>
<path style="opacity:0.1;enable-background:new    ;" d="M237.04,82.75c-0.68-0.56-1.64-0.84-2.6-0.72
	c-20.8,2.76-28.84,21.68-30.88,35.04c-3.32-0.96-6.68-1.48-10.12-1.521l-23.64-23.6l-0.76-0.76c-0.76-0.801-1.56-1.52-2.44-2.2
	l-0.08-0.12h-0.04c-4.24-3.44-9.56-5.96-16.16-6.84c-1.88-0.24-3.6,1.08-3.84,2.96c-0.2,1.32,0.4,2.56,1.44,3.28l25.64,25.64
	c0.48,2.12,0.8,4.08,1,5.6c-14.36,6.521-26.88,20.72-35.92,39.92c-2.04,3.24-3.88,6.641-5.56,10.2l-5.08-5.04l-0.08-0.12l-0.04,0.04
	c-0.2-0.239-0.4-0.399-0.6-0.52l-18.72-11.88c-1.64-1-3.76-0.52-4.76,1.08c-0.92,1.44-0.64,3.239,0.56,4.359l24.12,24.12
	c-3.24,10.08-5.04,21.08-5.04,32.64c0,1.24,0.04,2.48,0.08,3.721l-13.76,6.279l-15.08-2.239c-1.92-0.28-3.64,1.04-3.92,2.92
	c-0.16,1.159,0.24,2.24,1.04,2.96l34.52,34.52c-4.2,7.601-3.28,17.4-2.32,22.721c-6.84,1.84-12.92,7.44-13.72,8.199
	c-1.4,1.32-1.44,3.48-0.12,4.881l85.634,85.634c92.523-1.8,168.967-69.008,185.04-157.323L237.56,83.27L237.04,82.75z"/>
<g>
	<path style="fill:#2F4859;" d="M134.306,188.296c0.511,0,1.031-0.114,1.522-0.356c1.703-0.842,2.405-2.906,1.562-4.61
		l-8.866-17.972c-0.28-0.568-0.71-1.048-1.246-1.387l-18.737-11.848c-1.607-1.015-3.734-0.537-4.749,1.07
		c-1.018,1.607-0.538,3.734,1.069,4.75l17.919,11.328l8.438,17.103C131.816,187.591,133.038,188.296,134.306,188.296z"/>
	<path style="fill:#2F4859;" d="M110.282,231.289c0.491,0,0.979-0.105,1.43-0.31l16.119-7.359c1.73-0.79,2.492-2.832,1.701-4.562
		c-0.789-1.728-2.826-2.487-4.561-1.702l-15.194,6.938l-15.113-2.224c-1.887-0.294-3.631,1.023-3.909,2.905
		c-0.276,1.88,1.024,3.63,2.905,3.906l16.119,2.371C109.948,231.276,110.114,231.289,110.282,231.289z"/>
	<path style="fill:#2F4859;" d="M112.647,299.336c0.85,0,1.701-0.312,2.367-0.942c2.033-1.923,8.353-6.913,13.145-6.913
		c1.08,0,2.098-0.506,2.748-1.369c0.652-0.863,0.858-1.98,0.563-3.019c-0.056-0.195-5.514-20.011,5.587-26.052
		c1.67-0.909,2.288-2.999,1.378-4.668c-0.906-1.67-3.001-2.287-4.668-1.378c-12.343,6.716-11.094,22.796-9.765,30.189
		c-6.86,1.847-12.939,7.468-13.73,8.22c-1.376,1.309-1.43,3.484-0.123,4.862C110.825,298.976,111.735,299.336,112.647,299.336z"/>
	<path style="fill:#2F4859;" d="M249.694,188.296c-0.511,0-1.031-0.114-1.522-0.356c-1.703-0.842-2.405-2.906-1.562-4.61
		l8.866-17.972c0.28-0.568,0.71-1.048,1.246-1.387l18.737-11.848c1.607-1.015,3.734-0.537,4.749,1.07
		c1.018,1.607,0.538,3.734-1.069,4.75l-17.919,11.328l-8.438,17.103C252.184,187.591,250.962,188.296,249.694,188.296z"/>
	<path style="fill:#2F4859;" d="M273.718,231.289c-0.491,0-0.979-0.105-1.43-0.31l-16.119-7.359c-1.73-0.79-2.492-2.832-1.701-4.562
		c0.789-1.728,2.826-2.487,4.561-1.702l15.194,6.938l15.113-2.224c1.887-0.294,3.631,1.023,3.909,2.905
		c0.276,1.88-1.024,3.63-2.905,3.906l-16.119,2.371C274.052,231.276,273.886,231.289,273.718,231.289z"/>
	<path style="fill:#2F4859;" d="M271.353,299.336c-0.85,0-1.701-0.312-2.367-0.942c-2.033-1.923-8.353-6.913-13.145-6.913
		c-1.08,0-2.098-0.506-2.748-1.369c-0.652-0.863-0.858-1.98-0.563-3.019c0.056-0.195,5.514-20.011-5.587-26.052
		c-1.67-0.909-2.288-2.999-1.378-4.668c0.906-1.67,3.001-2.287,4.668-1.378c12.343,6.716,11.094,22.796,9.765,30.189
		c6.86,1.847,12.939,7.468,13.73,8.22c1.376,1.309,1.43,3.484,0.123,4.862C273.175,298.976,272.265,299.336,271.353,299.336z"/>
	<path style="fill:#2F4859;" d="M206.436,126.446c-0.034,0-0.065-0.001-0.096-0.001c-1.901-0.053-3.398-1.63-3.346-3.53
		c0.334-12.75,7.336-37.705,31.443-40.885c1.885-0.245,3.615,1.078,3.864,2.963c0.249,1.885-1.078,3.615-2.963,3.864
		c-24.282,3.202-25.425,32.978-25.463,34.244C209.82,124.967,208.291,126.446,206.436,126.446z"/>
	<path style="fill:#2F4859;" d="M178.326,126.448c-1.858,0-3.386-1.48-3.438-3.347l0,0c-0.038-1.266-1.179-31.043-25.461-34.244
		c-1.885-0.249-3.212-1.979-2.963-3.864c0.249-1.884,1.986-3.21,3.864-2.963c24.107,3.18,31.109,28.135,31.44,40.886
		c0.052,1.9-1.45,3.482-3.35,3.531C178.388,126.448,178.357,126.448,178.326,126.448z"/>
</g>
<path style="fill:#E56353;" d="M138.63,159.421c-9.498,15.027-15.194,34.108-15.194,54.89c0,48.43,30.868,87.689,68.947,87.689
	c38.078,0,68.946-39.26,68.946-87.689c0-20.782-5.696-39.862-15.195-54.89H138.63z"/>
<g>
	<path style="fill:#3A556A;" d="M192.382,115.494c-21.739,0-41.116,17.153-53.752,43.927h107.503
		C233.496,132.647,214.12,115.494,192.382,115.494z"/>
	<path style="fill:#3A556A;" d="M185.068,301.505c2.404,0.322,4.843,0.495,7.314,0.495c2.471,0,4.909-0.173,7.313-0.495
		l-7.313-108.7L185.068,301.505z"/>
	<circle style="fill:#3A556A;" cx="227.12" cy="176.52" r="2.236"/>
	<circle style="fill:#3A556A;" cx="215.496" cy="223.348" r="4.328"/>
	<circle style="fill:#3A556A;" cx="246.24" cy="207.236" r="4.624"/>
	<circle style="fill:#3A556A;" cx="229.2" cy="254.08" r="6.692"/>
	<circle style="fill:#3A556A;" cx="154.928" cy="245.12" r="3.728"/>
	<circle style="fill:#3A556A;" cx="141.04" cy="210.96" r="6.264"/>
	<circle style="fill:#3A556A;" cx="164.64" cy="177.84" r="3.58"/>
	<circle style="fill:#3A556A;" cx="172.6" cy="211.636" r="4.4"/>
	<circle style="fill:#3A556A;" cx="201.08" cy="178.744" r="4.4"/>
	<circle style="fill:#3A556A;" cx="161.12" cy="271" r="4.252"/>
</g>
<circle style="fill:#2F4859;" cx="172.08" cy="137.56" r="7.544"/>
<circle style="fill:#64798A;" cx="172.08" cy="137.56" r="4.592"/>
<circle style="fill:#2F4859;" cx="212.68" cy="137.56" r="7.544"/>
<circle style="fill:#64798A;" cx="212.68" cy="137.56" r="4.592"/>
<g>
</g>
<g>
</g>
<g>
</g>
<g>
</g>
<g>
</g>
<g>
</g>
<g>
</g>
<g>
</g>
<g>
</g>
<g>
</g>
<g>
</g>
<g>
</g>
<g>
</g>
<g>
</g>
<g>
</g>
</svg>
