<svg version="1.1" id="canistra" xmlns:sketch="http://www.bohemiancoding.com/sketch/ns"
	 xmlns="http://www.w3.org/2000/svg" xmlns:xlink="http://www.w3.org/1999/xlink" x="0px" y="0px" viewBox="-11 -3 66 66"
	 style="enable-background:new 0 0 44 77.5;" xml:space="preserve">
<title>Fill 42</title>
<desc>Created with Sketch.</desc>
<g sketch:type="MSPage">
	<path sketch:type="MSShapeGroup" d="M42.7,17.7c0.5,0.3,0.6,0.7,0.6,1.1c0,0.5-0.2,0.8-0.7,1.1v8.4L41.9,29l0.1,21.2l0.4,0.6v6.2
		c-0.8,3.9-3.8,4.4-3.9,4.4L8.3,61.5H7.6c-2.4,0-3.9-1.3-4.2-1.6c-0.5-0.4-1.7-2.1-1.7-9.1l0.5-0.7L2.1,29l-0.7-0.6l-0.3-8.6
		c-0.4-0.3-0.5-0.7-0.5-0.9c0-0.4,0.2-0.8,0.6-1.1c0.3-2.7,0.4-3.3,1.1-8.4l0.2-0.9c0-0.2,0.1-0.8,0.6-1.2C3.3,6.8,3.7,6.6,4,6.5
		l0.1-0.1c0.1,0,0.2-0.1,0.3-0.2c0.1,0,0.3,0,0.3-0.1V5.8l0.1-3.6c0-0.2,0.1-0.3,0.2-0.4V1.7c0.8-1.1,4-1.3,5.9-1.3h0.9
		c1.9,0,5.1,0.2,5.9,1.3c0.1,0.2,0.1,0.4,0.1,0.5v3.4l1.9,0.1c0.2-0.1,1.4-0.2,2.3-1.8c0.2-0.4,1.8-3.4,7.9-3.4h0.6h0.3
		c1.7,0,7.2,0.1,9,2.2l0.1,0.1c0,0,3.4,6.2,3,14.7V17.7L42.7,17.7z M42.1,18.8c0,0,0-0.2-0.3-0.5L2.5,18.2c-0.1,0-0.2,0-0.3,0.2
		c-0.2,0.1-0.4,0.3-0.4,0.3s0,0.1,0.1,0.1H42.1L42.1,18.8L42.1,18.8z M2.3,19.9L2.6,28v0.1l38.9-0.3v-7.9H2.3L2.3,19.9z M2.4,17.3
		l1.2-0.1l38-0.1v-0.1c0.2-7.4-2.6-13-2.9-13.7c-0.9-0.9-3.4-1.8-8.1-1.8c-0.2,0-0.3-0.1-0.3-0.1c-0.2,0-0.4,0.1-0.6,0.1
		c-2.9,0-4.6,0.9-5.6,1.4c-1,0.7-1.3,1.4-1.4,1.4c-1.1,2.3-3.1,2.4-3.2,2.4h-8.9c-0.6-0.1-1-0.1-1.6-0.1c-1,0-1.9,0-2.6,0.2
		C6.3,6.8,6.1,6.9,6,6.9H5.8c-0.5,0.2-0.9,0.3-1,0.4C4.3,7.5,4,7.7,3.9,7.9C3.6,8.1,3.6,8.3,3.6,8.3v0.1L3,13.1
		c-0.3,1.8-0.4,2.7-0.5,3.4v0.2c0,0.1-0.1,0.2-0.1,0.4V17.3L2.4,17.3z M41.3,56.7l-0.1-5.6L2.8,51c0.1,6.2,1.1,7.8,1.3,8h0.2v0.1
		c0.2,0.3,1.5,1.3,3.3,1.3c0.2,0,0.4,0,0.6-0.1l30.1-0.1c0.2-0.1,0.7-0.2,1.2-0.7C40.4,59.1,41,58,41.3,56.7L41.3,56.7z M40.8,50V29
		L3.2,29.2L3.3,50H40.8L40.8,50z M6.4,5.5C7.1,5.3,8,5.4,9,5.4c0.4,0,0.7,0.1,1,0.1c0.2,0.1,0.4,0.1,0.6,0.1h6V3.3
		C14.9,4,11.3,4,11.1,4C11,4,7.4,4,5.7,3.3v2.2H6.4L6.4,5.5z M6.1,2.2c0.1,0.1,0.3,0.2,0.4,0.2s0.2,0,0.2,0.1C7.5,2.7,9,3,11.3,3
		s3.7-0.3,4.5-0.5C15.9,2.4,16,2.4,16,2.4c0.1,0,0.3-0.1,0.4-0.2c-1-0.5-2.6-0.7-5.1-0.7C8.9,1.5,7.1,1.5,6.1,2.2L6.1,2.2z
		 M27.5,11.8c-1.1,0-2.1-0.9-2.1-2.1V6.9c0-1.1,0.9-2.1,2.1-2.1h7.2c1.1,0,2,0.9,2,2.1v2.8c0,1.1-0.9,2.1-2,2.1H27.5L27.5,11.8z
		 M26.4,9.7c0,0.6,0.5,1,0.9,1h7.3c0.6,0,0.9-0.5,0.9-1V6.8c0-0.5-0.4-0.9-0.9-0.9h-7.3c-0.5,0-0.9,0.4-0.9,0.9V9.7L26.4,9.7z"/>
</g>
</svg>
