
<svg version="1.1" id="chemistry" xmlns="http://www.w3.org/2000/svg" xmlns:xlink="http://www.w3.org/1999/xlink" x="0px" y="0px"
	 viewBox="0 0 512.001 512.001" style="enable-background:new 0 0 512.001 512.001;" xml:space="preserve">
<g>
	<g>
		<path d="M503.323,485.932h-35.791V112.835h35.791c4.792,0,8.677-3.881,8.677-8.677c0-4.796-3.885-8.677-8.677-8.677h-35.791
			V25.348c0-4.796-3.885-8.677-8.677-8.677s-8.677,3.881-8.677,8.677v70.134h-43.383v-28.25
			c10.846-3.572,17.896-12.846,17.896-24.17c0-14.354-11.104-25.67-25.416-25.67h-95.587c-14.312,0-26.5,11.316-26.5,25.67
			c0,11.325,8.134,20.599,16.811,24.17v28.25H172.525V60.775h9.833c14.312,0,25.958-11.676,25.958-26.03s-11.646-26.03-25.958-26.03
			H86.771c-14.312,0-25.958,11.676-25.958,26.03s11.646,26.03,25.958,26.03h7.664v34.707H8.753c-4.792,0-8.677,3.881-8.677,8.677
			s3.885,8.677,8.677,8.677h85.682v31.487C48.883,159.267,16.05,199.297,9.445,246.54c-1.264,2.137-1.253,4.677-0.526,6.995
			c-0.286,3.444-0.301,6.918-0.301,10.422c0,69.371,56.509,125.812,125.879,125.812c69.371,0,125.846-56.441,125.846-125.812
			c0-1.21-0.021-2.411-0.055-3.614c0.02-0.244,0.08-0.477,0.08-0.724c0-0.597-0.604-1.178-0.7-1.746
			c-2.515-52.09-37.252-97.424-87.143-113.551v-31.487h121.473v229.169c0,31.123,25.301,56.441,56.398,56.441
			c31.097,0,56.398-25.318,56.398-56.441V112.835h43.383v373.097H8.677c-4.792,0-8.677,3.881-8.677,8.677
			c0,4.796,3.885,8.677,8.677,8.677h494.647c4.792,0,8.677-3.881,8.677-8.677C512.001,489.813,508.115,485.932,503.323,485.932z
			 M134.565,372.415c-59.805,0-108.458-48.654-108.458-108.458c0-3.148,0.141-6.268,0.409-9.359
			c10.176-7.804,46.105-29.426,99.115,3.699c25.657,16.04,49.149,20.98,68.85,20.98c21.196,0,37.992-5.717,48.383-9.478
			C239.815,326.896,192.409,372.415,134.565,372.415z M242.025,251.562c-1.162,0.398-2.245,0.841-3.544,1.311
			c-18.239,6.652-56.11,20.472-103.726-9.287c-46.516-29.082-82.929-21.514-103.834-11.636
			c10.807-34.916,38.338-62.967,74.961-72.775c3.792-1.017,5.906-4.448,5.906-8.38v-37.96h43.383v37.96
			c0,3.932,3.182,7.363,6.973,8.38C205.413,170.763,236.997,207.806,242.025,251.562z M111.789,95.482V60.775h43.383v34.707H111.789
			z M164.933,43.422h-60.737H86.771c-4.826,0-8.605-3.813-8.605-8.677c0-4.787,3.86-8.677,8.605-8.677h95.587
			c4.826,0,8.605,3.813,8.605,8.677c0,4.787-3.86,8.677-8.605,8.677H164.933z M389.442,342.004
			c0,21.556-17.514,39.088-39.045,39.088s-39.045-17.531-39.045-39.088V234.308h18.438c4.792,0,8.677-3.881,8.677-8.677
			s-3.885-8.677-8.677-8.677h-18.438v-26.03h35.791c4.792,0,8.677-3.881,8.677-8.677c0-4.796-3.885-8.677-8.677-8.677h-35.791
			v-17.353h61.821c4.792,0,8.677-3.881,8.677-8.677s-3.885-8.677-8.677-8.677h-61.821v-26.03h78.09V342.004z M389.442,95.482h-78.09
			v-26.03h78.09V95.482z M399.275,52.098h-0.072H303.76h-0.072c-4.826,0-8.605-3.813-8.605-8.677c0-4.787,3.86-8.677,8.605-8.677
			h95.587c4.826,0,8.605,3.813,8.605,8.677C407.88,48.209,404.02,52.098,399.275,52.098z"/>
	</g>
</g>
<g>
	<g>
		<path d="M73.828,259.618c-11.96,0-21.692,9.727-21.692,21.692c0,11.964,9.732,21.692,21.692,21.692s21.692-9.727,21.692-21.692
			C95.52,269.345,85.788,259.618,73.828,259.618z M73.828,285.648c-2.394,0-4.338-1.949-4.338-4.338c0-2.39,1.945-4.338,4.338-4.338
			s4.338,1.949,4.338,4.338C78.166,283.699,76.222,285.648,73.828,285.648z"/>
	</g>
</g>
<g>
	<g>
		<path d="M125.888,294.325c-11.96,0-21.692,9.727-21.692,21.692c0,11.964,9.732,21.692,21.692,21.692s21.692-9.727,21.692-21.692
			C147.58,304.052,137.848,294.325,125.888,294.325z M125.888,320.355c-2.394,0-4.338-1.949-4.338-4.338
			c0-2.39,1.945-4.338,4.338-4.338s4.338,1.949,4.338,4.338C130.226,318.406,128.282,320.355,125.888,320.355z"/>
	</g>
</g>
<g>
	<g>
		<path d="M186.625,285.648c-11.96,0-21.692,9.727-21.692,21.692c0,11.964,9.732,21.692,21.692,21.692s21.692-9.727,21.692-21.692
			C208.316,295.375,198.585,285.648,186.625,285.648z M186.625,311.678c-2.394,0-4.338-1.949-4.338-4.338
			c0-2.39,1.945-4.338,4.338-4.338s4.338,1.949,4.338,4.338C190.963,309.729,189.018,311.678,186.625,311.678z"/>
	</g>
</g>
<g>
</g>
<g>
</g>
<g>
</g>
<g>
</g>
<g>
</g>
<g>
</g>
<g>
</g>
<g>
</g>
<g>
</g>
<g>
</g>
<g>
</g>
<g>
</g>
<g>
</g>
<g>
</g>
<g>
</g>
</svg>
