<svg version="1.1" id="fumigant" xmlns="http://www.w3.org/2000/svg" xmlns:xlink="http://www.w3.org/1999/xlink" x="0px" y="0px"
	 viewBox="3 0 93 93" style="enable-background:new 0 0 100 125;" xml:space="preserve">
<title>02</title>
<g>
	<path d="M76.2,15.1c-9.3,0-16.8,7.5-16.8,16.8c0,0.6,0.4,1,1,1s1-0.4,1-1c0-8.2,6.6-14.8,14.8-14.8S91,23.7,91,31.9
		s-6.6,14.8-14.8,14.8c0,0,0,0,0,0H8c-0.6,0-1,0.4-1,1s0.4,1,1,1h68.2c9.3,0,16.8-7.5,16.8-16.8S85.5,15.1,76.2,15.1z"/>
	<path d="M37,35.6H8c-0.6,0-1,0.4-1,1s0.4,1,1,1h29c5.7,0,10.4-4.7,10.4-10.4S42.7,16.8,37,16.8s-10.4,4.7-10.4,10.4v0
		c0,0.6,0.4,1,1,1s1-0.4,1-1c0-4.6,3.8-8.4,8.4-8.4c4.6,0,8.4,3.8,8.4,8.4C45.4,31.8,41.6,35.6,37,35.6L37,35.6z"/>
	<path d="M58.1,71.6c-0.6,6.2-6.1,10.8-12.3,10.2c-5.4-0.5-9.7-4.8-10.2-10.2c0-0.6-0.4-1-1-1s-1,0.4-1,1c0,7.3,6,13.3,13.3,13.3
		s13.3-6,13.3-13.3c0-7.3-6-13.3-13.3-13.3H8c-0.6,0-1,0.4-1,1s0.4,1,1,1h38.9C53.1,60.4,58.1,65.4,58.1,71.6z"/>
</g>
</svg>
