<svg version="1.1" id="fungicidu" xmlns="http://www.w3.org/2000/svg" xmlns:xlink="http://www.w3.org/1999/xlink" x="0px" y="0px"
	 viewBox="3 3 58 58" style="enable-background:new 0 0 64 80;" xml:space="preserve">
<g>
	<path d="M46.4,27.1c-0.9,0.2-1.7,0.5-2.4,0.9c-0.6,0.3-1.2,0.5-1.8,0.7c-2,0.4-3.9-1.2-4.7-1.9c-0.7-0.7-2.4-2.5-2.1-4.6
		c0.1-0.6,0.3-1.2,0.6-1.8c0.3-0.8,0.7-1.7,0.8-2.7c0.1-1.6-0.6-3.2-1.8-4.3c-1.7-1.5-4.1-1.6-6.2-0.5c-2,1.1-3.1,3.3-2.8,5.4
		c0.1,0.9,0.5,1.7,0.9,2.4c0.3,0.6,0.5,1.1,0.6,1.6c0.4,1.8-0.9,3.7-1.6,4.7c-0.8,1-2.4,2.6-4.3,2.4c-0.6,0-1.3-0.3-2-0.6
		c-0.9-0.3-1.8-0.7-2.9-0.7c-1.5-0.1-2.9,0.6-4,1.7s-1.6,2.6-1.5,4.1s0.9,2.8,2.2,3.8s2.8,1.3,4.3,1c0.9-0.2,1.7-0.6,2.4-1
		c0.8-0.4,1.5-0.8,2.1-0.8c0.8,0,1.6,0.4,2.3,1.2c0.6,0.6,1.1,1.7,0.8,2.6c-0.2,0.5-0.6,1-1.1,1.5c-0.4,0.4-0.9,0.9-1.3,1.5
		c-0.8,1.2-1,2.8-0.6,4.3s1.4,2.7,2.7,3.4c0.7,0.3,1.4,0.5,2.2,0.5c0.7,0,1.4-0.1,2.1-0.4c1.4-0.6,2.5-1.7,3-3.1c0.4-1,0.4-2,0.4-3
		c0-0.7,0-1.4,0.2-1.9c0.4-1.5,1.8-2.7,3.4-4c2.1-1.7,4.2-3.2,6.4-3c0.6,0.1,1.3,0.3,2,0.5c1.1,0.3,2.3,0.7,3.6,0.6
		c1.6-0.2,3-1.2,3.8-2.6c0.6-1.1,0.9-2.4,0.6-3.6C52.2,28.6,49.3,26.6,46.4,27.1z M50.3,31.9c0.1,0.6,0,1.2-0.3,1.8
		c-0.4,0.8-1.2,1.3-1.9,1.4c-0.8,0.1-1.7-0.2-2.6-0.5c-0.8-0.2-1.6-0.5-2.5-0.6c-3.1-0.3-5.8,1.6-8.2,3.5c-1.5,1.2-3.6,2.9-4.2,5.3
		c-0.2,0.9-0.2,1.7-0.3,2.5c0,0.8,0,1.5-0.3,2.2c-0.2,0.7-0.8,1.3-1.6,1.6c-0.8,0.3-1.6,0.3-2.3,0c-0.7-0.3-1.2-1-1.4-1.8
		s-0.1-1.6,0.3-2.2c0.2-0.4,0.6-0.7,0.9-1.1c0.6-0.6,1.4-1.4,1.7-2.4c0.5-1.6,0-3.5-1.3-5c-1.2-1.3-2.7-2-4.1-2c-0.1,0-0.1,0-0.2,0
		c-1.2,0-2.3,0.6-3.2,1.1c-0.6,0.3-1.2,0.6-1.8,0.8c-0.7,0.2-1.5,0-2.2-0.5s-1.1-1.2-1.2-2c-0.1-0.7,0.2-1.5,0.8-2.2
		c0.6-0.6,1.4-1,2.1-0.9c0.7,0,1.4,0.3,2.1,0.6c0.9,0.3,1.7,0.6,2.8,0.7c2.2,0.1,4.5-1,6.4-3.4c1.9-2.3,2.6-4.7,2.2-6.8
		c-0.2-0.8-0.5-1.5-0.8-2.1s-0.6-1.2-0.7-1.8c-0.2-1.3,0.6-2.3,1.5-2.8s2.3-0.7,3.3,0.2c0.6,0.5,1,1.4,0.9,2.2c0,0.6-0.3,1.3-0.6,2
		s-0.6,1.5-0.7,2.4c-0.3,2.2,0.7,4.7,2.9,6.7c2.1,2,4.6,2.9,6.8,2.5c0.9-0.2,1.6-0.5,2.4-0.8c0.6-0.3,1.2-0.6,1.8-0.7
		C48.3,29.3,50,30.4,50.3,31.9z"/>
	<path d="M32,5.2C24.9,5.2,18.2,8,13.1,13l0,0l0,0C8,18.1,5.2,24.9,5.2,32c0,7.2,2.8,13.9,7.9,19s11.8,7.9,19,7.9S45.9,56,51,51
		s7.9-11.8,7.9-19S56,18.1,51,13S39.2,5.2,32,5.2z M50.1,48.3L41,39.2c-0.5-0.5-1.3-0.5-1.8,0s-0.5,1.3,0,1.8l9.1,9.1
		c-4.5,4-10.2,6.3-16.3,6.3c-6.5,0-12.6-2.5-17.2-7.1S7.7,38.5,7.7,32c0-6.1,2.2-11.8,6.3-16.3l9.6,9.6c0.2,0.2,0.6,0.4,0.9,0.4
		s0.6-0.1,0.9-0.4c0.5-0.5,0.5-1.3,0-1.8l-9.6-9.6c4.5-4,10.2-6.2,16.3-6.2c6.5,0,12.6,2.5,17.2,7.1s7.1,10.7,7.1,17.2
		C56.3,38.1,54.1,43.8,50.1,48.3z"/>
</g>
</svg>
