<svg version="1.1" id="gerbicidu" xmlns:cc="http://creativecommons.org/ns#" xmlns:dc="http://purl.org/dc/elements/1.1/" xmlns:inkscape="http://www.inkscape.org/namespaces/inkscape" xmlns:rdf="http://www.w3.org/1999/02/22-rdf-syntax-ns#" xmlns:sodipodi="http://sodipodi.sourceforge.net/DTD/sodipodi-0.dtd" xmlns:svg="http://www.w3.org/2000/svg"
	 xmlns="http://www.w3.org/2000/svg" xmlns:xlink="http://www.w3.org/1999/xlink" x="0px" y="0px" viewBox="0 0 95 95"
	 style="enable-background:new 0 0 100 125;" xml:space="preserve">
<g transform="translate(0,-952.36218)">
	<path d="M21.1,979.7c-4.9,6.3-7.9,14.1-7.9,22.7c0,20.3,16.5,36.7,36.8,36.7c8.6,0,16.4-2.9,22.7-7.9c0.3-0.2,0.3-0.6,0.1-0.9
		L22,979.6C21.6,979.2,21.3,979.4,21.1,979.7L21.1,979.7z M21.6,980.9l11.7,11.6c-1.3,3.4-1.4,7.8-0.5,13.2
		c-0.9-1.4-1.8-2.7-2.9-3.7c-1.8-1.8-4.2-2.8-7.5-2.5c-0.1,0-0.3,0.1-0.4,0.2c-0.1,0.1-0.1,0.3-0.1,0.4c0.1,4.3,2.1,7.7,4,11.1
		c1.9,3.4,3.7,7,3.8,11.9c0,0.1,0.1,0.3,0.2,0.4c0.1,0.1,0.2,0.1,0.4,0.1c11.3,0,22.7,0,34.1,0l7.1,7.1c-6,4.5-13.4,7.2-21.5,7.2
		c-19.7,0-35.6-15.9-35.6-35.6C14.4,994.3,17.1,986.9,21.6,980.9z M34.2,993.4l29.1,29H30.9c-0.2-4.9-2.1-8.5-4-11.8
		c-1.8-3.3-3.6-6.3-3.8-10c2.7-0.1,4.5,0.7,6,2.2c1.6,1.6,2.9,3.9,4.4,6.4c0.1,0.1,0.2,0.2,0.3,0.3s0.3,0,0.4,0s0.2-0.1,0.3-0.3
		c0.1-0.1,0.1-0.3,0.1-0.4C33.1,1002.3,32.9,997.1,34.2,993.4z"/>
	<path d="M50,965.6c-8.6,0-16.4,2.9-22.7,7.8c-0.3,0.2-0.3,0.5-0.1,0.8c0,0,0,0,0,0.1l50.8,50.7c0.2,0.2,0.6,0.2,0.8,0
		c0,0,0,0,0-0.1c4.9-6.2,7.8-14.1,7.8-22.7C86.7,982.1,70.3,965.6,50,965.6L50,965.6z M48.5,966.8c0.5,0,1,0,1.5,0
		c19.6,0,35.5,15.9,35.5,35.6c0,8-2.7,15.5-7.2,21.4l-3.1-3.1c2-5.8,1.4-8.9,1-11.8c-0.4-2.9-0.8-5.6,1.7-11.6
		c0.1-0.3,0-0.6-0.3-0.8c-0.2-0.1-0.4-0.1-0.5,0c-2.4,1.3-4.1,3.2-5.4,4.8c-1,1.2-1.8,2.3-2.4,2.8c-0.9-2.4-0.5-5.4,0.3-8.4
		c0.9-3.3,2.2-6.5,2.5-8.8c0-0.3-0.2-0.6-0.5-0.7c-0.1,0-0.1,0-0.2,0c-2.8,0.6-5,2.8-6.8,5.5c-1.5,2.4-2.6,5.2-3.5,7.8
		c-4.5-6.8-3.2-15-3.6-23.4c0-0.3-0.2-0.5-0.5-0.5c-0.1,0-0.3,0-0.4,0.1c-1.8,1.4-3.8,4-5.5,7.4c-1.5,3.1-2.6,6.7-3.1,10.5L28.5,974
		C34.1,969.8,41,967.1,48.5,966.8z M56.6,977.5c0.2,8.2-0.9,16.7,4.4,23.7c0.2,0.3,0.6,0.3,0.8,0.1c0.1-0.1,0.2-0.2,0.2-0.3
		c0.9-2.8,2.1-6,3.7-8.6c1.4-2.3,3.1-4,5.1-4.8c-0.5,2.1-1.5,4.9-2.3,7.8c-0.9,3.4-1.4,6.9,0.1,9.8c0.1,0.3,0.5,0.4,0.7,0.3
		c1.2-0.5,2.1-1.9,3.3-3.5c1-1.2,2.1-2.5,3.6-3.6c-1.8,5.1-1.5,7.9-1.1,10.6c0.4,2.8,0.9,5.4-0.8,10.6l-25.1-25
		c0.3-4,1.5-7.8,3.1-11C53.7,981.1,55.2,978.9,56.6,977.5z"/>
	<path d="M50,958.4c-24.3,0-44,19.7-44,44c0,24.3,19.7,44,44,44c24.3,0,44-19.7,44-44C94,978,74.3,958.4,50,958.4L50,958.4z
		 M50,959.5c23.7,0,42.8,19.1,42.8,42.8c0,23.7-19.2,42.9-42.8,42.9S7.2,1026,7.2,1002.4C7.2,978.7,26.3,959.5,50,959.5L50,959.5z"
		/>
</g>
</svg>
