<svg version="1.1" id="insecticidi" xmlns="http://www.w3.org/2000/svg" xmlns:xlink="http://www.w3.org/1999/xlink" x="0px" y="0px"
	 viewBox="0 0 100 100" style="enable-background:new 0 0 100 125;" xml:space="preserve">
<g>
	<path d="M71.8,59l-10-11.6h-6.4c0-0.8-0.2-1.5-0.4-2.3l7.9-2.9L69.7,29c0.2-0.3,0-0.8-0.3-0.9c-0.3-0.2-0.8,0-0.9,0.3L62,41.1
		l-7.4,2.7c-0.8-1.9-2-3.2-3.4-3.7c2.6-0.5,4.6-2.8,4.6-5.6c0-1.3-0.4-2.5-1.2-3.5l4-2.7v-4.2c0-0.4-0.3-0.7-0.7-0.7
		c-0.4,0-0.7,0.3-0.7,0.7v3.4L53.7,30c-1-0.8-2.3-1.3-3.6-1.3c-1.4,0-2.7,0.5-3.7,1.4l-3.7-2.5v-3.4c0-0.4-0.3-0.7-0.7-0.7
		c-0.4,0-0.7,0.3-0.7,0.7v4.2l4.1,2.8c-0.7,0.9-1.1,2.1-1.1,3.4c0,2.8,2,5.1,4.6,5.6c-1.5,0.5-2.7,1.9-3.4,3.8L38,41.1l-6.5-12.7
		c-0.2-0.3-0.6-0.5-0.9-0.3c-0.3,0.2-0.5,0.6-0.3,0.9L37,42.2l8.1,3c-0.2,0.7-0.3,1.4-0.3,2.2h-6.6L28.2,59c-0.2,0.3-0.2,0.7,0.1,1
		c0.1,0.1,0.3,0.2,0.4,0.2c0.2,0,0.4-0.1,0.5-0.2l9.6-11.2h5.9c0.1,1.5,0.4,2.9,0.9,4.1l-9.2,4.6l0.3,10.4l-6.4,11.9
		c-0.2,0.3-0.1,0.7,0.3,0.9c0.1,0.1,0.2,0.1,0.3,0.1c0.2,0,0.5-0.1,0.6-0.4L38.1,68l-0.3-9.8l8.5-4.3c0.8,1.2,1.7,2,2.8,2.3
		c-3.3,0.7-5.8,4.7-5.8,9.5c0,5.3,3,9.6,6.7,9.6c3.7,0,6.7-4.3,6.7-9.6c0-4.8-2.5-8.8-5.8-9.5c1.1-0.3,2-1.1,2.8-2.2l8.3,4.2
		L61.9,68l6.6,12.2c0.1,0.2,0.4,0.4,0.6,0.4c0.1,0,0.2,0,0.3-0.1c0.3-0.2,0.5-0.6,0.3-0.9l-6.4-11.9l0.3-10.4l-9-4.5
		c0.5-1.2,0.9-2.6,0.9-4.1h5.7l9.6,11.2c0.1,0.2,0.3,0.2,0.5,0.2c0.2,0,0.3-0.1,0.4-0.2C72,59.7,72,59.2,71.8,59z"/>
	<path d="M50,4.3C24.8,4.3,4.3,24.8,4.3,50S24.8,95.7,50,95.7S95.7,75.2,95.7,50S75.2,4.3,50,4.3z M50,7.3c10.1,0,19.4,3.5,26.7,9.4
		L16.7,76.7C10.9,69.4,7.3,60.1,7.3,50C7.3,26.5,26.5,7.3,50,7.3z M50,92.7c-12.4,0-23.5-5.3-31.3-13.7L79,18.7
		c8.4,7.8,13.7,18.9,13.7,31.3C92.7,73.5,73.5,92.7,50,92.7z"/>
</g>
</svg>
