<svg version="1.1" id="microudobrenie" xmlns="http://www.w3.org/2000/svg" xmlns:xlink="http://www.w3.org/1999/xlink" x="0px" y="0px"
	 viewBox="7 7 85 85" style="enable-background:new 0 0 100 125;" xml:space="preserve">
<path d="M21.7,36.9v44.8c0,0.1,0,3.7,2.4,6.1c1.5,1.6,3.7,2.4,6.4,2.4h38.3c2.7,0,4.8-0.8,6.4-2.4c2.4-2.5,2.4-6,2.4-6.1V36.9
	c0-4.7-3.3-7.5-5.8-8.9c2-1,3.3-3.1,3.3-5.4v-6.2c0-3.4-2.7-6.1-6.1-6.1H30.3c-3.4,0-6.1,2.7-6.1,6.1v6.2c0,2.4,1.4,4.4,3.3,5.4
	C25,29.4,21.7,32.1,21.7,36.9z M26.2,22.5v-6.2c0-2.3,1.8-4.1,4.1-4.1H69c2.3,0,4.1,1.8,4.1,4.1v6.2c0,2.3-1.8,4.1-4.1,4.1H30.3
	C28,26.6,26.2,24.8,26.2,22.5z M30.9,28.6h37.6c0.6,0.2,7.1,2.4,7.1,8.3v44.8c0,0,0,2.8-1.8,4.7c-1.2,1.2-2.8,1.8-4.9,1.8H30.5
	c-2.1,0-3.8-0.6-4.9-1.8c-1.9-1.9-1.9-4.7-1.9-4.7V36.9C23.7,30.9,30.5,28.7,30.9,28.6z"/>
<path d="M68.8,24.6c0.6,0,1-0.4,1-1v-8.1c0-0.6-0.4-1-1-1s-1,0.4-1,1v8.1C67.8,24.2,68.3,24.6,68.8,24.6z"/>
<path d="M64.6,24.6c0.6,0,1-0.4,1-1v-8.1c0-0.6-0.4-1-1-1s-1,0.4-1,1v8.1C63.6,24.2,64,24.6,64.6,24.6z"/>
<path d="M60.3,24.6c0.6,0,1-0.4,1-1v-8.1c0-0.6-0.4-1-1-1s-1,0.4-1,1v8.1C59.3,24.2,59.7,24.6,60.3,24.6z"/>
<path d="M56,24.6c0.6,0,1-0.4,1-1v-8.1c0-0.6-0.4-1-1-1s-1,0.4-1,1v8.1C55,24.2,55.5,24.6,56,24.6z"/>
<path d="M51.8,24.6c0.6,0,1-0.4,1-1v-8.1c0-0.6-0.4-1-1-1s-1,0.4-1,1v8.1C50.8,24.2,51.2,24.6,51.8,24.6z"/>
<path d="M47.5,24.6c0.6,0,1-0.4,1-1v-8.1c0-0.6-0.4-1-1-1s-1,0.4-1,1v8.1C46.5,24.2,47,24.6,47.5,24.6z"/>
<path d="M43.3,24.6c0.6,0,1-0.4,1-1v-8.1c0-0.6-0.4-1-1-1s-1,0.4-1,1v8.1C42.3,24.2,42.7,24.6,43.3,24.6z"/>
<path d="M39,24.6c0.6,0,1-0.4,1-1v-8.1c0-0.6-0.4-1-1-1s-1,0.4-1,1v8.1C38,24.2,38.5,24.6,39,24.6z"/>
<path d="M34.8,24.6c0.6,0,1-0.4,1-1v-8.1c0-0.6-0.4-1-1-1s-1,0.4-1,1v8.1C33.8,24.2,34.2,24.6,34.8,24.6z"/>
<path d="M31.5,23.6v-8.1c0-0.6-0.4-1-1-1s-1,0.4-1,1v8.1c0,0.6,0.4,1,1,1S31.5,24.2,31.5,23.6z"/>
<path d="M32.4,78.2h34.4c0.6,0,1-0.4,1-1V66c0-0.6-0.4-1-1-1H32.4c-0.6,0-1,0.4-1,1v11.3C31.4,77.8,31.9,78.2,32.4,78.2z M33.4,67
	h32.4v9.3H33.4V67z"/>
<path d="M32.4,61h34.4c0.6,0,1-0.4,1-1s-0.4-1-1-1h-7.4c-0.2-4.6-3.7-8.3-8.2-8.8v-3.8c1.7-0.1,4.9-0.5,7.1-2.7c2.9-3,2.5-8,2.5-8.2
	c0-0.5-0.4-0.9-0.9-0.9c-0.2,0-5.2-0.3-8.1,2.7c-0.7,0.7-1.2,1.5-1.5,2.3c-0.4-0.9-0.9-1.7-1.7-2.4c-3-2.9-8-2.5-8.2-2.5
	c-0.5,0-0.9,0.4-0.9,0.9c0,0.2-0.3,5.2,2.7,8.1c2.2,2.1,5.5,2.5,7.2,2.5v3.9c-4.5,0.5-8,4.2-8.2,8.8h-8.5c-0.6,0-1,0.4-1,1
	S31.9,61,32.4,61z M53.1,38.7c1.6-1.7,4.3-2,5.7-2.1c0,1.4-0.3,4-1.9,5.7c-1.6,1.7-4.3,2-5.7,2.1V44C51.2,42.5,51.6,40.2,53.1,38.7z
	 M43.4,42.3c-1.7-1.6-2-4.3-2.1-5.7c1.4,0,4,0.3,5.7,1.9c1.7,1.6,2,4.3,2.1,5.7C47.8,44.2,45.1,44,43.4,42.3z M50.2,52.1
	c3.9,0,7,3,7.2,6.9H42.9C43.1,55.2,46.3,52.1,50.2,52.1z"/>
</svg>
