<svg version="1.1" id="money" xmlns="http://www.w3.org/2000/svg" xmlns:xlink="http://www.w3.org/1999/xlink" x="0px" y="0px"
	 viewBox="0 0 510.626 510.626" style="enable-background:new 0 0 510.626 510.626;" xml:space="preserve">
<circle style="fill:#FFD15C;" cx="325" cy="137.658" r="121.6"/>
<circle style="fill:#F8B64C;" cx="325" cy="137.658" r="100.267"/>
<g>
	<path style="fill:#FFD15C;" d="M319.667,189.925c-16-1.067-27.733-7.467-36.267-16l11.733-17.067
		c5.333,6.4,13.867,11.733,24.533,12.8v-23.467c-16-4.267-33.067-9.6-33.067-30.933c0-16,11.733-28.8,33.067-30.933V70.458H334.6
		v14.933c12.8,1.067,23.467,6.4,30.933,13.867l-11.733,16c-5.333-5.333-12.8-8.533-19.2-9.6v21.333
		c16,4.267,34.133,9.6,34.133,30.933c0,17.067-10.667,29.867-34.133,32v13.867h-14.933V189.925z M319.667,122.725v-18.133
		c-6.4,1.067-10.667,4.267-10.667,9.6C309,118.458,313.267,121.658,319.667,122.725z M333.534,150.458v20.267
		c7.467-1.067,11.733-6.4,11.733-10.667C345.267,154.725,341,152.591,333.534,150.458z"/>
	<path style="fill:#FFD15C;" d="M487.134,333.925c0,0-51.2,40.533-80,53.333c0,0-62.933,34.133-122.667,36.267h-92.8
		c0,0-17.067-3.2-39.467,11.733c-3.2,2.133-5.333,4.267-8.533,6.4c-4.267,3.2-9.6,7.467-13.867,12.8l-74.667-108.8
		c0,0,6.4-4.267,14.933-11.733c2.133-2.133,5.333-4.267,7.467-7.467c6.4-5.333,12.8-12.8,19.2-20.267c0,0,39.467-51.2,128-20.267
		c61.867,21.333,69.333,22.4,69.333,22.4s37.333,4.267,73.6,4.267c0,0,29.867,0,28.8,22.4c0,7.467-4.267,13.867-9.6,19.2
		c-7.467,6.4-21.333,13.867-46.933,16c-10.667,1.067-22.4,1.067-33.067,0c-27.733-2.133-60.8-7.467-67.2-3.2
		c0,0-8.533,6.4,24.533,10.667c0,0,24.533,3.2,68.267,4.267c0,0,78.933-3.2,75.733-58.667c0,0,27.733-17.067,43.733-23.467
		c0,0,44.8-26.667,55.467-9.6C508.467,291.258,521.267,309.391,487.134,333.925z"/>
</g>
<path style="fill:#FFFFFF;" d="M384.734,328.591c-3.2-3.2-11.733-5.333-16-5.333H363.4c-4.267,0-7.467,0-11.733,0v35.2
	c14.933-3.2,23.467-8.533,28.8-11.733c3.2-3.2,5.333-7.467,6.4-11.733C385.8,331.791,384.734,329.658,384.734,328.591z"/>
<path style="fill:#F8B64C;" d="M152.2,435.258c-3.2,2.133-5.333,4.267-8.533,6.4c-4.267,3.2-9.6,7.467-13.867,12.8l-74.667-108.8
	c0,0,6.4-4.267,14.933-11.733c2.133-2.133,5.333-4.267,7.467-7.467L152.2,435.258z"/>
<rect x="43.355" y="316.978" transform="matrix(-0.8238 0.5668 -0.5668 -0.8238 369.296 693.0427)" style="fill:#40596B;" width="67.197" height="173.859"/>
<circle style="fill:#FF7058;" cx="111.667" cy="451.258" r="14.933"/>
<g>
</g>
<g>
</g>
<g>
</g>
<g>
</g>
<g>
</g>
<g>
</g>
<g>
</g>
<g>
</g>
<g>
</g>
<g>
</g>
<g>
</g>
<g>
</g>
<g>
</g>
<g>
</g>
<g>
</g>
</svg>
