<svg xmlns="http://www.w3.org/2000/svg" xmlns:xlink="http://www.w3.org/1999/xlink" version="1.1" id="pauk" x="0px" y="0px" viewBox="2 2 95 95" enable-background="new 0 0 100 100" xml:space="preserve"><path d="M93.173,59.514c-0.118-0.42-2.965-10.312-9.635-12.413c-5.569-1.756-12.73-1.087-14.756-0.847  c-1.207-2.458-2.598-4.786-4.146-6.867c1.489,0.118,3.693,0.247,6.22,0.247c4.824,0,10.813-0.47,15.186-2.382  c2.854-1.249,4.746-3.044,5.624-5.338c1.286-3.357-0.118-6.514-0.178-6.646c-0.199-0.436-0.713-0.629-1.151-0.431  c-0.438,0.199-0.63,0.714-0.432,1.151c0.013,0.026,1.166,2.619,0.138,5.305c-0.705,1.842-2.286,3.312-4.697,4.367  c-7.393,3.233-20.279,2.046-22.224,1.843c-0.772-0.897-1.575-1.736-2.41-2.495c5.533-2.58,24.981-12.09,24.815-18.246  C85.338,9.812,73.84,6.59,73.351,6.456c-0.458-0.125-0.94,0.146-1.068,0.609c-0.126,0.463,0.146,0.941,0.609,1.068  C73,8.163,83.634,11.134,83.788,16.809c0.113,4.165-14.812,12.517-24.555,16.966c-0.356-0.273-0.716-0.533-1.082-0.778  c1.206-1.691,1.862-3.714,1.862-5.798c0-5.522-4.492-10.015-10.014-10.015c-5.522,0-10.014,4.493-10.014,10.015  c0,2.083,0.657,4.107,1.863,5.798c-0.366,0.245-0.727,0.504-1.083,0.778c-9.744-4.449-24.667-12.801-24.555-16.967  c0.153-5.664,10.79-8.646,10.897-8.675c0.463-0.127,0.735-0.604,0.609-1.068c-0.127-0.463-0.604-0.736-1.068-0.609  C26.16,6.59,14.662,9.812,14.474,16.762c-0.167,6.156,19.281,15.666,24.815,18.245c-0.835,0.758-1.637,1.597-2.409,2.495  c-1.943,0.203-14.827,1.392-22.224-1.843c-2.404-1.052-3.983-2.515-4.692-4.349c-1.031-2.668,0.12-5.299,0.13-5.323  c0.199-0.437,0.006-0.952-0.431-1.151c-0.437-0.199-0.952-0.006-1.151,0.431c-0.061,0.132-1.464,3.289-0.179,6.646  c0.878,2.293,2.771,4.089,5.625,5.338c4.372,1.913,10.36,2.382,15.185,2.382c2.526,0,4.731-0.129,6.22-0.247  c-1.548,2.08-2.938,4.409-4.146,6.867c-2.026-0.241-9.187-0.909-14.756,0.846c-6.669,2.102-9.516,11.993-9.634,12.413  c-0.129,0.462,0.14,0.942,0.602,1.072c0.078,0.021,0.157,0.032,0.235,0.032c0.379,0,0.729-0.251,0.836-0.634  c0.027-0.094,2.713-9.408,8.484-11.226c4.758-1.498,10.986-1.084,13.453-0.836c-0.901,2.013-1.678,4.088-2.32,6.172  c-1.312,0.729-7.529,4.553-10.006,12.703c-2.3,7.57-0.642,16.43,4.929,26.334c0.16,0.284,0.455,0.443,0.758,0.443  c0.145,0,0.291-0.036,0.425-0.112c0.418-0.235,0.567-0.765,0.332-1.183c-5.322-9.462-6.934-17.854-4.79-24.946  c1.697-5.614,5.415-9.052,7.629-10.685c-0.898,3.538-1.384,7.015-1.384,10.126c0,13.61,8.52,21.105,23.99,21.105  c15.471,0,23.99-7.495,23.99-21.105c0-3.11-0.485-6.587-1.385-10.124c2.215,1.632,5.933,5.07,7.629,10.683  c2.144,7.092,0.532,15.484-4.789,24.946c-0.236,0.418-0.088,0.947,0.331,1.183c0.135,0.076,0.281,0.112,0.425,0.112  c0.305,0,0.6-0.159,0.759-0.443c5.571-9.904,7.229-18.764,4.929-26.333c-2.477-8.149-8.691-11.972-10.005-12.704  c-0.642-2.083-1.42-4.159-2.321-6.172c2.465-0.248,8.688-0.664,13.453,0.837c5.771,1.818,8.457,11.132,8.483,11.226  c0.108,0.384,0.457,0.634,0.837,0.634c0.077,0,0.157-0.011,0.235-0.032C93.033,60.456,93.303,59.976,93.173,59.514z M43.327,32.081  c-1.038-1.416-1.603-3.125-1.603-4.882c0-4.563,3.712-8.276,8.276-8.276s8.275,3.712,8.275,8.276c0,1.757-0.564,3.466-1.603,4.882  c-0.91-0.488-1.829-0.869-2.751-1.154c-0.115-0.036-0.229-0.069-0.345-0.102c-0.263-0.074-0.525-0.139-0.788-0.197  c-0.192-0.042-0.385-0.079-0.578-0.113c-0.226-0.039-0.45-0.074-0.676-0.101c-0.18-0.022-0.361-0.039-0.542-0.054  c-0.193-0.015-0.385-0.022-0.578-0.029C50.276,30.326,50.14,30.31,50,30.31c-0.14,0-0.277,0.016-0.417,0.021  c-0.192,0.006-0.383,0.014-0.575,0.029c-0.182,0.015-0.364,0.032-0.545,0.054c-0.221,0.026-0.443,0.062-0.664,0.1  c-0.199,0.035-0.398,0.072-0.595,0.116c-0.26,0.057-0.52,0.121-0.778,0.194c-0.117,0.034-0.234,0.068-0.351,0.104  C45.153,31.213,44.236,31.593,43.327,32.081z M50,86.142c-10.151,0-22.252-3.359-22.252-19.367c0-3.736,0.628-7.716,1.743-11.601  c0.083-0.137,0.132-0.289,0.13-0.45c0.711-2.392,1.606-4.741,2.656-6.969c0.112-0.124,0.202-0.269,0.227-0.446  c0.001-0.007-0.002-0.013-0.001-0.02c1.503-3.101,3.301-5.951,5.313-8.325c0.052-0.048,0.099-0.096,0.138-0.155  c2.032-2.364,4.272-4.248,6.639-5.418c0.017-0.008,0.034-0.016,0.05-0.023c0.312-0.153,0.625-0.292,0.94-0.418  c0.046-0.019,0.092-0.038,0.139-0.056c0.318-0.125,0.638-0.236,0.96-0.334c0.02-0.006,0.04-0.014,0.06-0.02  c0.307-0.092,0.615-0.165,0.924-0.232c0.154-0.033,0.308-0.059,0.462-0.084c0.146-0.025,0.293-0.047,0.439-0.066  c0.192-0.025,0.383-0.048,0.575-0.063c0.082-0.006,0.165-0.007,0.247-0.012c0.408-0.022,0.816-0.022,1.224,0  c0.082,0.005,0.165,0.006,0.247,0.012c0.191,0.015,0.383,0.039,0.575,0.063c0.146,0.019,0.292,0.041,0.439,0.066  c0.153,0.026,0.308,0.052,0.462,0.084c0.31,0.067,0.617,0.14,0.924,0.232c0.021,0.006,0.04,0.014,0.062,0.021  c0.32,0.098,0.64,0.209,0.957,0.333c0.047,0.018,0.094,0.038,0.141,0.057c0.314,0.127,0.627,0.265,0.937,0.417  c0.019,0.009,0.036,0.017,0.054,0.026c2.365,1.17,4.606,3.053,6.637,5.416c0.039,0.061,0.088,0.11,0.141,0.158  c2.011,2.374,3.808,5.223,5.311,8.323c0.001,0.007-0.002,0.014-0.001,0.021c0.026,0.181,0.117,0.33,0.231,0.455  c1.048,2.224,1.941,4.568,2.651,6.956c-0.002,0.163,0.048,0.319,0.132,0.458c1.115,3.883,1.742,7.862,1.742,11.597  C72.252,82.782,60.151,86.142,50,86.142z"></path></svg>