<svg version="1.1" id="potraviteli" xmlns="http://www.w3.org/2000/svg" xmlns:xlink="http://www.w3.org/1999/xlink" x="0px" y="0px"
	 viewBox="13 16 75 75" style="enable-background:new 0 0 100 125;" xml:space="preserve">
<g>
	<g>
		<path d="M16,66.6h9.8c0.5,6.1,5.6,10.9,11.8,10.9c6.6,0,11.9-5.3,11.9-11.9V38c0-5.4,4.4-9.9,9.9-9.9h10.7l-0.1,5c0,0.6,0.4,1,1,1
			l0,0c0.5,0,1-0.4,1-1l0.1-6c0-0.3-0.1-0.5-0.3-0.7s-0.4-0.3-0.7-0.3H59.4c-6.6,0-11.9,5.3-11.9,11.9v27.7c0,5.4-4.4,9.9-9.9,9.9
			c-5.1,0-9.4-3.9-9.8-8.9h10.7c0.6,0,1-0.4,1-1v-37v-6.9c0-0.6-0.4-1-1-1H25.9c-0.6,0-1,0.4-1,1v5.9C19,27.9,15,31.4,15,36.5v29.1
			C15,66.1,15.4,66.6,16,66.6z M26.7,56.3c-1.2,0-2.2-1-2.2-2.2s1-2.2,2.2-2.2s2.2,1,2.2,2.2S27.9,56.3,26.7,56.3z M26.9,22.9h10.6
			v4.9H26.9V22.9z M17,36.5c0-5,4.3-6.7,8.3-6.7h0.6h11.6v34.9h-9.7v-6.4c1.8-0.5,3.2-2.1,3.2-4c0-2.3-1.9-4.2-4.2-4.2
			s-4.2,1.9-4.2,4.2c0,1.9,1.4,3.6,3.2,4v6.4H17V36.5z"/>
		<path d="M85.5,85.7h-7.7c1.1-6.2,6.6-14.5,6.6-14.6c0.2-0.3,0.2-0.7,0-1.1c-0.2-0.3-0.5-0.5-0.9-0.5C76.2,70,72,74.8,70.4,77
			c-5.9-6.2-13.2-4.1-13.3-4.1c-0.4,0.1-0.7,0.4-0.7,0.8s0.2,0.8,0.5,1c5,2.8,6.1,8.6,6.4,10.9H15c-0.6,0-1,0.4-1,1s0.4,1,1,1h59.6
			l0,0l0,0h10.9c0.6,0,1-0.4,1-1S86.1,85.7,85.5,85.7z M81.6,71.8c-1.8,3-5.1,8.9-5.8,13.9h-0.4c-1-3-2.3-5.3-3.6-7.1
			C72.7,77.1,75.9,73,81.6,71.8z M60,74.5c2.4-0.1,6.3,0.6,9.6,4.7l0.1,0.1c1.3,1.6,2.5,3.6,3.5,6.3h-7.9
			C65.1,83.5,64.2,78.1,60,74.5z"/>
		<circle cx="58" cy="62.3" r="1.5"/>
		<circle cx="66.7" cy="62.3" r="1.5"/>
		<circle cx="75.4" cy="62.3" r="1.5"/>
		<circle cx="62.4" cy="54.8" r="1.5"/>
		<circle cx="71.1" cy="54.8" r="1.5"/>
		<circle cx="79.8" cy="54.8" r="1.5"/>
		<circle cx="71.1" cy="39.7" r="1.5"/>
		<circle cx="66.6" cy="47.2" r="1.5"/>
		<circle cx="75.3" cy="47.2" r="1.5"/>
		<circle cx="83.9" cy="62.3" r="1.5"/>
	</g>
</g>
</svg>
