<svg version="1.1" id="rodenticidu" xmlns="http://www.w3.org/2000/svg" xmlns:xlink="http://www.w3.org/1999/xlink" x="0px" y="0px"
	 viewBox="0 0 101 101" style="enable-background:new 0 0 100 125;" xml:space="preserve">
<path d="M82.9,17.1C74.1,8.3,62.4,3.5,50,3.5S25.9,8.3,17.1,17.1S3.5,37.6,3.5,50s4.8,24.1,13.6,32.9S37.6,96.5,50,96.5
	s24.1-4.8,32.9-13.6S96.5,62.4,96.5,50S91.7,25.9,82.9,17.1z M50,93.5c-11.6,0-22.5-4.5-30.8-12.7S6.5,61.6,6.5,50
	c0-11.1,4.2-21.6,11.7-29.7l12,12c0.5,1.6,1.5,3.1,2.8,4.1c-0.2,0.6-0.4,1.3-0.6,1.9c-8.1,2-13.9,9.2-13.9,17.6
	c0,10,8.1,18.2,18.2,18.2c5.1,0,9.9-2.1,13.3-5.8c3.4,3.7,8.2,5.8,13.3,5.8c2.6,0,5-0.5,7.2-1.5l9.1,9.1
	C71.6,89.3,61.1,93.5,50,93.5z M64.9,39.9l0.2,1l1,0.2c7.2,1.3,12.4,7.6,12.4,14.9c0,5.5-3,10.3-7.4,13L59.4,57.3
	c-0.2-0.4-0.4-0.6-0.8-0.8l-3.4-3.4c1.5-1.8,2.7-3.9,2.1-5.7c-1-3-5.8-3-7.3-3l0,0l0,0c-0.7,0-2,0-3.3,0.3L37,35
	c2.6-4.1,7.4-6.8,12.9-6.8C57.5,28.2,63.6,33,64.9,39.9z M57.9,26.8c1-1.2,2.5-2,4.1-2c2.8,0,5.2,2.3,5.2,5.2c0,1.4-0.6,2.7-1.5,3.6
	C63.9,30.6,61.2,28.3,57.9,26.8z M48.5,56.6v1.3c0,1.3-1,2.3-2.3,2.3h-0.4c-1.3,0-2.3-1-2.3-2.3c0-0.8-0.7-1.5-1.5-1.5
	s-1.5,0.7-1.5,1.5c0,2.9,2.4,5.3,5.3,5.3h0.4c1.5,0,2.8-0.6,3.8-1.6c1,1,2.3,1.6,3.8,1.6h0.4c1.9,0,3.5-1,4.4-2.4l9.6,9.6
	c-1.5,0.5-3.2,0.8-4.9,0.8c-4.8,0-9.2-2.2-12.1-6.1L50,63.5l-1.2,1.6c-2.9,3.9-7.3,6.1-12.1,6.1c-8.4,0-15.2-6.8-15.2-15.2
	c0-7.3,5.2-13.6,12.4-14.9l1-0.2l0.2-1c0.1-0.7,0.3-1.4,0.6-2.1l8.1,8.1c-0.5,0.4-0.8,0.9-1.1,1.5C41.6,50.7,46.3,54.9,48.5,56.6z
	 M53.1,51l-3.6-3.6c0.2,0,0.3,0,0.5,0l0,0c3.4,0,4.4,0.7,4.5,1C54.6,48.8,54.1,49.8,53.1,51z M56.4,58.5c-0.3,1-1.2,1.7-2.2,1.7
	h-0.4c-1.3,0-2.3-1-2.3-2.3v-1.3c0.5-0.4,1-0.8,1.6-1.4L56.4,58.5z M51,53.1c-0.3,0.3-0.7,0.6-1,0.9c-2.7-2.2-4.8-4.8-4.5-5.7
	c0-0.1,0.1-0.2,0.3-0.3L51,53.1z M34.9,32.8l-2-2c0-0.3-0.1-0.5-0.1-0.8c0-2.8,2.3-5.2,5.2-5.2c1.6,0,3.1,0.8,4.1,2
	C39.1,28.2,36.7,30.2,34.9,32.8z M81.8,79.7l-8.5-8.5c4.9-3.3,8.2-8.8,8.2-15.2c0-8.4-5.8-15.7-13.9-17.6c-0.2-0.7-0.4-1.3-0.6-1.9
	c2-1.5,3.1-3.9,3.1-6.4c0-4.5-3.7-8.2-8.2-8.2c-2.9,0-5.5,1.6-7,4c-1.6-0.4-3.3-0.6-5-0.6s-3.4,0.2-5,0.6c-1.5-2.4-4.1-4-7-4
	c-3.8,0-7,2.6-7.9,6.1l-9.8-9.8c8.3-7.8,19-11.7,29.7-11.7c11.1,0,22.3,4.2,30.8,12.7C89,27.5,93.5,38.4,93.5,50
	C93.5,61.1,89.3,71.6,81.8,79.7z"/>
</svg>
