<svg version="1.1" id="semena" xmlns="http://www.w3.org/2000/svg" xmlns:xlink="http://www.w3.org/1999/xlink" x="0px" y="0px"
	 viewBox="-2 -3 63 63" style="enable-background:new 0 0 60 75;" xml:space="preserve">
<style type="text/css">
	.st0{fill:none;stroke:#000000;stroke-width:2;stroke-linecap:round;}
	.st1{fill:none;stroke:#000000;stroke-width:2;stroke-linecap:round;stroke-linejoin:round;}
</style>
<title>13 -Give Seeds- (Outline)</title>
<desc>Created with Sketch.</desc>
<g>
	<g transform="translate(-360.000000, -522.000000)">
		<g transform="translate(361.000000, 523.000000)">
			<path class="st0" d="M57.3,39.2c0.8-0.6,0.9-1.8,0.3-2.6c-1.3-1.7-2.3-2.2-6.6,0.1L42.3,42c-2.7,1.4-9.6,1-12.6,1
				c0,0,7.1,0.5,4.3-3.7c-1.4-2.1-3.8-3.3-6.4-3.3h-3.9c-2.3,0-4.5-0.7-6.3-2C13.1,30.7,5,37,5,37v18h14c2,0,4-0.2,6-0.5l13-2
				c0.4,0,0.9-0.1,1.3-0.1c0,0,0,0,0,0c1.1-0.1,2-0.7,2.8-1.4L57.3,39.2L57.3,39.2z"/>
			<polygon class="st0" points="0,58 5,58 5,34 0,34 			"/>
			<path class="st0" d="M16,46c0-2.2,1.8-3,4-3h9.7"/>
			<path class="st1" d="M17,16c6.1,0,11-4.9,11-11C21.9,5,17,9.9,17,16L17,16z"/>
			<path class="st1" d="M22,21.7c2.1,5.7,8.5,8.6,14.2,6.4C34,22.5,27.7,19.6,22,21.7L22,21.7z"/>
			<path class="st1" d="M35.1,14.8C40.5,12,42.6,5.4,39.8,0C34.4,2.8,32.3,9.4,35.1,14.8L35.1,14.8z"/>
		</g>
	</g>
</g>
</svg>
