<svg version="1.1" id="tractor" xmlns="http://www.w3.org/2000/svg" xmlns:xlink="http://www.w3.org/1999/xlink" x="0px" y="0px"
	 viewBox="0 0 436.907 436.907" style="enable-background:new 0 0 436.907 436.907;" xml:space="preserve">
<circle style="fill:#EA8953;" cx="218.453" cy="218.453" r="218.453"/>
<path style="opacity:0.1;enable-background:new    ;" d="M281.154,128.657l-0.005-0.005h-0.002
	c-0.742-0.738-1.762-1.198-2.885-1.198h-18.876v47.141l-50.323-50.323l-0.001,0.002c-3.109-3.135-7.412-5.08-12.174-5.08h-79.873
	v81.545c-9.933,8.397-18.568,20.787-19.627,32.802c-0.146,1.655,0.405,3.208,1.347,4.489l-0.056,0.027l0.308,0.308
	c0.273,0.328,0.569,0.623,0.899,0.899l6.288,6.288c-1.895,5.229-2.95,10.858-2.95,16.729c0,2.628,0.273,5.188,0.683,7.714
	l-10.035,0.307c-1.945,0.068-3.516,1.707-3.448,3.652l0.103,2.594c0.021,1.26,0.73,2.286,1.727,2.887l-0.102,0.013l24.93,24.93
	l-0.784,0.841c-1.331,1.434-1.262,3.687,0.171,5.018l125.403,125.403c90.065-9.602,163.722-73.937,187.165-159.1L281.154,128.657
	C281.155,128.658,281.154,128.657,281.154,128.657z"/>
<g>
	<path style="fill:#F6C358;" d="M267.566,187.85h-8.187v-60.379h18.869c2.261,0,4.093,1.833,4.093,4.094l0,0
		c0,2.261-1.833,4.094-4.093,4.094h-10.682V187.85z"/>
	<path style="fill:#F6C358;" d="M325.982,245.179H208.968v-66.913h96.104c11.549,0,20.911,9.362,20.911,20.911V245.179z"/>
</g>
<path style="fill:#DC8744;" d="M215.499,243.208l8.159,18.17h113.731c5.018,0,9.085-4.068,9.085-9.085l0,0
	c0-5.018-4.068-9.085-9.085-9.085H215.499z"/>
<path style="fill:#27A2DB;" d="M214.066,236.092L117.012,215v-95.794h79.869c9.491,0,17.185,7.694,17.185,17.185V236.092z"/>
<path style="fill:#1C75A1;" d="M97.376,233.557c2.116-23.512,32.995-48.461,46.182-42.008
	c25.804,12.627,100.023,59.622,100.023,59.622h53.216l0.543,30.497h-45.53c-10.846,0-21.442-3.258-30.415-9.351l-74.018-50.267
	c-7.642-5.19-17.912-4.118-24.318,2.539l-13.684,14.221c-2.197,2.283-5.659,2.795-8.423,1.246h0
	C98.619,238.747,97.136,236.22,97.376,233.557z"/>
<rect x="127.454" y="128.689" style="fill:#EBF0F3;" width="31.297" height="30.959"/>
<g>
	<path style="fill:#D5D6DB;" d="M206.242,183.982h-35.209v-55.293h17.005c10.054,0,18.204,8.15,18.204,18.204V183.982z"/>
	<rect x="142.95" y="128.689" style="fill:#D5D6DB;" width="15.787" height="30.959"/>
</g>
<path style="fill:#EBF0F3;" d="M206.242,183.982v-37.409c0-9.877-8.007-17.884-17.884-17.884h-17.325L206.242,183.982z"/>
<rect x="128.625" y="167.799" style="fill:#3A556A;" width="14.466" height="4.54"/>
<rect x="131.345" y="168.653" style="fill:#2F4859;" width="9.035" height="2.833"/>
<path style="fill:#E1E6E9;" d="M320.718,216.042h-19.285v-23.872h7.659c6.421,0,11.627,5.205,11.627,11.627V216.042z"/>
<rect x="301.431" y="219.921" style="fill:#E56353;" width="19.285" height="6.318"/>
<circle style="fill:#2F4859;" cx="152.535" cy="262.281" r="49.302"/>
<circle style="fill:#D5D6DB;" cx="152.535" cy="262.281" r="32.034"/>
<g>
	<circle style="fill:#2F4859;" cx="152.535" cy="262.281" r="15.285"/>
	<path style="fill:#2F4859;" d="M155.171,221.018h-9.696l0-14.913c0-1.963,1.592-3.555,3.555-3.555h2.586
		c1.964,0,3.555,1.592,3.555,3.555V221.018z"/>
	<path style="fill:#2F4859;" d="M118.774,233.559l-5.069,8.266l-12.713-7.796c-1.674-1.026-2.199-3.215-1.172-4.889l1.352-2.204
		c1.026-1.674,3.215-2.199,4.889-1.172L118.774,233.559z"/>
	<path style="fill:#2F4859;" d="M182.151,233.559l5.069,8.266l12.713-7.796c1.674-1.026,2.199-3.215,1.172-4.889l-1.352-2.204
		c-1.026-1.674-3.215-2.199-4.889-1.172L182.151,233.559z"/>
	<path style="fill:#2F4859;" d="M108.784,269.839l0.302,9.691l-14.906,0.465c-1.963,0.061-3.603-1.48-3.664-3.443l-0.081-2.584
		c-0.061-1.963,1.48-3.603,3.443-3.664L108.784,269.839z"/>
	<path style="fill:#2F4859;" d="M192.462,281.961l0.622-9.676l14.883,0.956c1.959,0.126,3.446,1.816,3.32,3.776l-0.166,2.58
		c-0.126,1.959-1.816,3.446-3.776,3.32L192.462,281.961z"/>
	<path style="fill:#2F4859;" d="M126.459,294.316l7.096,6.608l-10.163,10.914c-1.338,1.437-3.588,1.517-5.025,0.179l-1.892-1.762
		c-1.437-1.338-1.517-3.588-0.179-5.025L126.459,294.316z"/>
	<path style="fill:#2F4859;" d="M159.363,304.373l7.744-5.834l8.974,11.911c1.181,1.568,0.868,3.797-0.7,4.979l-2.065,1.556
		c-1.568,1.181-3.797,0.868-4.979-0.7L159.363,304.373z"/>
	<circle style="fill:#2F4859;" cx="297.745" cy="270.097" r="32.949"/>
</g>
<circle style="fill:#D5D6DB;" cx="297.745" cy="270.097" r="21.408"/>
<g>
	<circle style="fill:#2F4859;" cx="297.745" cy="270.097" r="10.216"/>
	<path style="fill:#2F4859;" d="M299.517,242.506h-6.48v-10.16c0-1.206,0.978-2.183,2.183-2.183h2.113
		c1.206,0,2.184,0.978,2.184,2.183V242.506z"/>
	<path style="fill:#2F4859;" d="M275.191,250.887l-3.388,5.524l-8.661-5.311c-1.028-0.63-1.35-1.975-0.72-3.003l1.105-1.802
		c0.63-1.028,1.975-1.35,3.003-0.72L275.191,250.887z"/>
	<path style="fill:#2F4859;" d="M317.549,250.887l3.388,5.524l8.661-5.311c1.028-0.63,1.35-1.975,0.72-3.003l-1.105-1.802
		c-0.63-1.028-1.975-1.35-3.003-0.72L317.549,250.887z"/>
	<path style="fill:#2F4859;" d="M268.515,275.135l0.202,6.477l-10.155,0.317c-1.205,0.038-2.213-0.909-2.25-2.114l-0.066-2.112
		c-0.038-1.205,0.909-2.213,2.114-2.25L268.515,275.135z"/>
	<path style="fill:#2F4859;" d="M324.44,283.236l0.416-6.467l10.139,0.651c1.203,0.077,2.116,1.116,2.039,2.319l-0.135,2.109
		c-0.077,1.203-1.116,2.116-2.319,2.039L324.44,283.236z"/>
	<path style="fill:#2F4859;" d="M280.327,291.493l4.742,4.416l-6.924,7.435c-0.822,0.882-2.203,0.932-3.086,0.11l-1.547-1.44
		c-0.882-0.822-0.932-2.203-0.11-3.086L280.327,291.493z"/>
	<path style="fill:#2F4859;" d="M302.318,298.215l5.176-3.899l6.113,8.115c0.726,0.963,0.533,2.332-0.43,3.058l-1.688,1.272
		c-0.963,0.726-2.332,0.533-3.058-0.43L302.318,298.215z"/>
</g>
<g>
</g>
<g>
</g>
<g>
</g>
<g>
</g>
<g>
</g>
<g>
</g>
<g>
</g>
<g>
</g>
<g>
</g>
<g>
</g>
<g>
</g>
<g>
</g>
<g>
</g>
<g>
</g>
<g>
</g>
</svg>
