<svg version="1.1" id="udobrenie" xmlns="http://www.w3.org/2000/svg" xmlns:xlink="http://www.w3.org/1999/xlink" x="0px" y="0px"
	 viewBox="14 15 70 70" style="enable-background:new 0 0 100 125;" xml:space="preserve">
<path d="M75,50c0-9.5-0.4-18.1-1.2-26c0.8-1.9,1.2-3.9,1.2-6c0-0.3-0.1-0.5-0.3-0.7S74.3,17,74,17c-2.1,0-4.2,0.4-6.1,1.3
	c-11-1.7-24.3-1.7-35.8,0c-2-0.8-4-1.3-6.1-1.3c-0.3,0-0.5,0.1-0.7,0.3S25,17.7,25,18c0,2.1,0.4,4.1,1.2,6C25.4,32.6,25,41.4,25,50
	c0,8.6,0.4,17.4,1.2,26c-0.8,1.9-1.2,3.9-1.2,6c0,0.3,0.1,0.5,0.3,0.7S25.7,83,26,83c2.1,0,4.1-0.4,6.1-1.3
	c11.3,1.7,24.5,1.7,35.8,0c2,0.8,4,1.3,6.1,1.3c0.3,0,0.5-0.1,0.7-0.3S75,82.3,75,82c0-2.1-0.4-4.1-1.2-6C74.6,68.1,75,59.4,75,50z
	 M71.8,76.6c0.6,1.4,1,2.9,1.1,4.4c-1.5-0.1-3.1-0.5-4.5-1.2c-0.2-0.1-0.4-0.1-0.6-0.1c-11.2,1.7-24.6,1.7-35.8,0
	c-0.1,0-0.1,0-0.2,0c-0.1,0-0.3,0-0.4,0.1c-1.5,0.7-3,1.1-4.5,1.2c0.1-1.5,0.5-3,1.1-4.4c0.1-0.2,0.1-0.3,0.1-0.5
	C27.4,67.3,27,58.6,27,50c0-8.6,0.4-17.4,1.2-26.1c0-0.2,0-0.3-0.1-0.5c-0.6-1.4-1-2.9-1.1-4.4c1.5,0.1,3.1,0.5,4.5,1.2
	c0.2,0.1,0.4,0.1,0.6,0.1c11.1-1.7,24.5-1.7,35.7,0c0.2,0,0.4,0,0.6-0.1c1.5-0.7,3-1.1,4.5-1.2c-0.1,1.5-0.5,3-1.1,4.4
	c-0.1,0.2-0.1,0.3-0.1,0.5C72.6,32.6,73,41.3,73,50c0,9.5-0.4,18.2-1.2,26.1C71.7,76.2,71.8,76.4,71.8,76.6z M59,41c0-0.6-0.4-1-1-1
	c-3.5,0-6.5,2-8,4.9C48.5,42,45.5,40,42,40c-0.6,0-1,0.4-1,1c0,4.6,3.5,8.4,8,8.9V54c-4,0.3-7,2.4-7,5c0,0.6,0.4,1,1,1h14
	c0.6,0,1-0.4,1-1c0-2.6-3-4.7-7-5v-4.1C55.5,49.4,59,45.6,59,41z M56.9,42.1c-0.5,3-2.8,5.4-5.8,5.8C51.6,44.9,53.9,42.6,56.9,42.1z
	 M43.1,42.1c3,0.5,5.4,2.8,5.8,5.8C45.9,47.4,43.6,45.1,43.1,42.1z M55.6,58H44.4c0.8-1.1,2.9-2,5.6-2S54.8,56.9,55.6,58z M50,33
	c-9.4,0-17,7.6-17,17s7.6,17,17,17s17-7.6,17-17S59.4,33,50,33z M50,65c-8.3,0-15-6.7-15-15s6.7-15,15-15s15,6.7,15,15
	S58.3,65,50,65z"/>
</svg>
